<mxfile host="app.diagrams.net" modified="2024-01-25T06:10:58.814Z" agent="Mozilla/5.0 (Windows NT 10.0; Win64; x64) AppleWebKit/537.36 (KHTML, like Gecko) Chrome/120.0.0.0 Safari/537.36" version="23.0.1" etag="Y3wZp6-_L-i_km_ju8Yf" type="github">
  <diagram name="第 1 页" id="grPI4_jW580HE94yl5tj">
    <mxGraphModel>
      <root>
        <mxCell id="0" />
        <mxCell id="1" parent="0" />
      </root>
    </mxGraphModel>
  </diagram>
</mxfile>
